<?xml version="1.0" standalone="no"?>
<!DOCTYPE svg PUBLIC "-//W3C//DTD SVG 20010904//EN"
 "http://www.w3.org/TR/2001/REC-SVG-20010904/DTD/svg10.dtd">
<svg version="1.0" xmlns="http://www.w3.org/2000/svg"
 width="271.000000pt" height="40.000000pt" viewBox="0 0 271.000000 40.000000"
 preserveAspectRatio="xMidYMid meet">

<g transform="translate(0.000000,40.000000) scale(0.100000,-0.100000)"
fill="#000000" stroke="none">
<path d="M770 184 l0 -35 30 21 c25 18 28 25 19 36 -6 8 -20 14 -30 14 -15 0
-19 -7 -19 -36z m35 17 c3 -5 1 -12 -5 -16 -5 -3 -10 1 -10 9 0 18 6 21 15 7z"/>
<path d="M840 183 c0 -27 3 -34 9 -24 8 12 12 12 24 2 13 -10 15 -7 14 21 -2
26 -7 34 -24 36 -20 3 -23 -1 -23 -35z m34 6 c-3 -5 -10 -7 -15 -3 -5 3 -7 10
-3 15 3 5 10 7 15 3 5 -3 7 -10 3 -15z"/>
<path d="M903 204 c-15 -39 38 -67 60 -32 8 12 7 21 -2 32 -17 21 -50 20 -58
0z m47 -20 c0 -14 -21 -19 -33 -7 -9 9 13 34 24 27 5 -3 9 -12 9 -20z"/>
<path d="M980 183 c0 -21 4 -33 8 -27 4 6 15 13 25 17 25 9 17 41 -11 45 -19
3 -22 -1 -22 -35z m34 6 c-3 -5 -10 -7 -15 -3 -5 3 -7 10 -3 15 3 5 10 7 15 3
5 -3 7 -10 3 -15z"/>
<path d="M1042 188 c2 -25 8 -34 26 -36 12 -2 22 1 22 7 0 6 -8 11 -17 12 -15
0 -15 2 2 9 17 7 17 9 3 9 -10 1 -18 5 -18 10 0 5 8 12 18 14 10 3 6 5 -11 6
-26 1 -28 -2 -25 -31z"/>
<path d="M1100 190 c0 -31 15 -48 24 -28 5 10 7 10 12 1 7 -17 22 -17 21 0 -1
30 4 47 13 47 6 0 10 -11 10 -25 0 -14 5 -25 10 -25 6 0 10 11 10 25 0 34 18
32 33 -4 l12 -28 17 33 c10 19 14 34 9 34 -5 0 -11 -6 -14 -12 -3 -10 -7 -10
-18 -1 -8 7 -43 12 -77 12 -61 -1 -62 -1 -62 -29z m35 11 c3 -5 1 -12 -5 -16
-5 -3 -10 1 -10 9 0 18 6 21 15 7z"/>
<path d="M1317 213 c-4 -3 -7 -16 -7 -29 0 -24 21 -37 45 -28 22 9 18 26 -4
19 -23 -7 -39 14 -21 25 7 5 20 6 28 2 10 -3 13 -1 8 6 -8 13 -39 16 -49 5z"/>
<path d="M1380 183 c1 -36 2 -37 15 -19 15 20 15 20 30 0 13 -18 14 -17 15 19
0 20 -4 37 -10 37 -5 0 -10 -7 -10 -15 0 -8 -4 -15 -10 -15 -5 0 -10 7 -10 15
0 8 -4 15 -10 15 -5 0 -10 -17 -10 -37z"/>
<path d="M1462 195 c-17 -37 -15 -47 8 -33 17 11 22 10 30 -2 14 -21 13 4 -2
35 -6 14 -14 25 -18 25 -4 0 -12 -11 -18 -25z"/>
<path d="M1520 190 c0 -24 4 -31 15 -27 8 4 17 2 20 -3 9 -14 43 -12 48 3 3 9
9 9 27 -1 21 -13 22 -12 15 5 -4 10 -10 26 -12 36 -8 25 -20 21 -38 -13 -19
-37 -24 -38 -22 -2 2 23 -2 28 -25 30 -25 3 -28 0 -28 -28z m35 11 c3 -5 1
-12 -5 -16 -5 -3 -10 1 -10 9 0 18 6 21 15 7z"/>
<path d="M1661 184 c1 -21 3 -31 6 -21 6 21 19 22 27 1 3 -8 10 -12 16 -9 13
8 13 65 0 65 -5 0 -10 -7 -10 -17 0 -14 -2 -14 -20 2 -20 18 -20 17 -19 -21z"/>
<path d="M1740 194 c-13 -33 -13 -54 0 -34 8 12 13 13 30 2 23 -14 25 -4 8 33
-14 32 -26 32 -38 -1z"/>
<path d="M853 97 c0 -8 6 -14 14 -14 7 0 12 5 10 11 -5 15 -24 18 -24 3z"/>
<path d="M1021 94 c0 -11 3 -14 6 -6 3 7 2 16 -1 19 -3 4 -6 -2 -5 -13z"/>
<path d="M1151 94 c0 -11 3 -14 6 -6 3 7 2 16 -1 19 -3 4 -6 -2 -5 -13z"/>
<path d="M1206 95 c-3 -9 0 -15 9 -15 16 0 20 16 6 24 -5 3 -11 -1 -15 -9z"/>
<path d="M1276 101 c-4 -7 -5 -15 -2 -18 9 -9 19 4 14 18 -4 11 -6 11 -12 0z"/>
<path d="M1351 94 c0 -11 3 -14 6 -6 3 7 2 16 -1 19 -3 4 -6 -2 -5 -13z"/>
<path d="M1463 97 c0 -8 6 -14 14 -14 9 0 10 4 2 14 -6 7 -12 13 -14 13 -1 0
-2 -6 -2 -13z"/>
<path d="M1511 97 c-8 -10 -7 -14 4 -14 8 0 15 6 15 14 0 7 -2 13 -4 13 -2 0
-9 -6 -15 -13z"/>
<path d="M1543 95 c0 -8 4 -12 9 -9 5 3 6 10 3 15 -9 13 -12 11 -12 -6z"/>
</g>
</svg>
